<?xml version="1.0" encoding="UTF-8" standalone="no"?>
<!-- Created with Inkscape (http://www.inkscape.org/) -->

<svg
   width="48"
   height="48"
   id="svg2"
   version="1.1"
   inkscape:version="1.1.2 (0a00cf5339, 2022-02-04)"
   sodipodi:docname="toggle-r-q4.svg"
   inkscape:export-filename="/home/u5z/projects/reflectivity_ui/reflectivity_ui/icons/toggle-r-q4.png"
   inkscape:export-xdpi="90"
   inkscape:export-ydpi="90"
   xmlns:inkscape="http://www.inkscape.org/namespaces/inkscape"
   xmlns:sodipodi="http://sodipodi.sourceforge.net/DTD/sodipodi-0.dtd"
   xmlns="http://www.w3.org/2000/svg"
   xmlns:svg="http://www.w3.org/2000/svg"
   xmlns:rdf="http://www.w3.org/1999/02/22-rdf-syntax-ns#"
   xmlns:cc="http://creativecommons.org/ns#"
   xmlns:dc="http://purl.org/dc/elements/1.1/">
  <defs
     id="defs4" />
  <sodipodi:namedview
     id="base"
     pagecolor="#ffffff"
     bordercolor="#666666"
     borderopacity="1.0"
     inkscape:pageopacity="0.0"
     inkscape:pageshadow="2"
     inkscape:zoom="9.2814827"
     inkscape:cx="29.575016"
     inkscape:cy="24.295687"
     inkscape:document-units="px"
     inkscape:current-layer="layer1"
     showgrid="false"
     inkscape:window-width="2092"
     inkscape:window-height="1082"
     inkscape:window-x="322"
     inkscape:window-y="127"
     inkscape:window-maximized="0"
     inkscape:pagecheckerboard="0">
    <inkscape:grid
       type="xygrid"
       id="grid2985"
       empspacing="5"
       visible="true"
       enabled="true"
       snapvisiblegridlinesonly="true" />
  </sodipodi:namedview>
  <metadata
     id="metadata7">
    <rdf:RDF>
      <cc:Work
         rdf:about="">
        <dc:format>image/svg+xml</dc:format>
        <dc:type
           rdf:resource="http://purl.org/dc/dcmitype/StillImage" />
      </cc:Work>
    </rdf:RDF>
  </metadata>
  <g
     inkscape:label="Layer 1"
     inkscape:groupmode="layer"
     id="layer1"
     transform="translate(0,-1004.3622)">
    <path
       style="fill:none;stroke:#ff0000;stroke-width:2.19309;stroke-linecap:round;stroke-linejoin:round;stroke-opacity:1"
       d="M 2.7723098,1012.801 H 15.455747 c 0,0 0.507606,6.0793 1.15304,8.3425 0.645435,2.2631 0.534523,4.3461 2.30608,5.2141 1.771557,0.8679 4.04701,-1.5134 5.765198,-1.0429 1.71819,0.4706 2.336154,1.4024 3.45912,3.1285 1.122966,1.726 0.135366,6.0587 2.30608,7.2997 2.170713,1.2409 5.097862,-1.3962 6.918239,-1.0429 1.820376,0.3535 2.479223,1.1995 3.459119,2.0857 0.979896,0.8862 0.805767,2.7681 2.306079,3.1284 1.500313,0.3603 4.612159,-2.0856 4.612159,-2.0856"
       id="path2999"
       inkscape:connector-curvature="0"
       sodipodi:nodetypes="cczzzzzzzzc"
       inkscape:export-filename="/home/glavic/Software/Scripte/QuickNXS/icons/totalReflection.png"
       inkscape:export-xdpi="90"
       inkscape:export-ydpi="90" />
    <path
       style="fill:none;stroke:#000000;stroke-width:1.09654px;stroke-linecap:butt;stroke-linejoin:miter;stroke-opacity:1"
       d="M 47.740861,1050.3423 H 1.61927 v -44.8411"
       id="path3001"
       inkscape:connector-curvature="0"
       sodipodi:nodetypes="ccc" />
    <path
       inkscape:export-ydpi="90"
       inkscape:export-xdpi="90"
       inkscape:export-filename="/home/glavic/Software/Scripte/QuickNXS/icons/totalReflection.png"
       sodipodi:nodetypes="czzzzzzc"
       inkscape:connector-curvature="0"
       id="path2990"
       d="m 18.214851,1027.558 c 1.771557,0.8679 4.04701,-1.5134 5.765198,-1.0429 1.71819,0.4706 2.336154,1.4024 3.45912,3.1285 1.122966,1.726 0.135366,6.0587 2.30608,7.2997 2.170713,1.2409 5.097862,-1.3962 6.918239,-1.0429 1.820376,0.3535 2.479223,1.1995 3.459119,2.0857 0.979896,0.8862 0.805767,2.7681 2.306079,3.1284 1.500313,0.3603 4.612159,-2.0856 4.612159,-2.0856"
       style="fill:none;stroke:#008000;stroke-width:2.19308567;stroke-linecap:round;stroke-linejoin:round;stroke-opacity:1" />
    <path
       style="fill:none;stroke:#0000ff;stroke-width:2.19308567;stroke-linecap:round;stroke-linejoin:round;stroke-opacity:1"
       d="m 36.663488,1035.9004 c 1.820376,0.3535 2.479223,1.1995 3.459119,2.0857 0.979896,0.8862 0.805767,2.7681 2.306079,3.1284 1.500313,0.3603 4.612159,-2.0856 4.612159,-2.0856"
       id="path3760"
       inkscape:connector-curvature="0"
       sodipodi:nodetypes="czzc"
       inkscape:export-filename="/home/glavic/Software/Scripte/QuickNXS/icons/totalReflection.png"
       inkscape:export-xdpi="90"
       inkscape:export-ydpi="90" />
    <text
       xml:space="preserve"
       style="font-style:normal;font-weight:normal;font-size:35.1326px;line-height:1.25;font-family:sans-serif;fill:#000000;fill-opacity:1;stroke:none;stroke-width:0.878309"
       x="3.263695"
       y="1040.248"
       id="text4674"
       inkscape:export-filename="/home/u5z/projects/reflectivity_ui/reflectivity_ui/icons/toggle-r-q4.png"
       inkscape:export-xdpi="90"
       inkscape:export-ydpi="90"><tspan
         sodipodi:role="line"
         id="tspan18126"
         x="3.263695"
         y="1040.248"
         style="stroke-width:0.878309">Q<tspan
   style="font-size:22.836px;baseline-shift:super;stroke-width:0.878309"
   id="tspan25910">4</tspan></tspan></text>
  </g>
</svg>
